<svg width="40" height="40" viewBox="0 0 40 40" fill="none" xmlns="http://www.w3.org/2000/svg">
<path d="M30.2529 15.9141V32.0862H9.74707V15.9141H30.2529ZM20 21.4798C18.8889 21.4798 17.9882 22.3805 17.9882 23.4916C17.9882 24.2943 18.4583 24.9872 19.1382 25.31L17.6643 28.418H22.3357L20.8623 25.3098C21.5419 24.9869 22.0118 24.2941 22.0118 23.4916C22.0118 22.3805 21.1111 21.4798 20 21.4798Z" fill="#77B1F4"/>
<path d="M20 6.69189C23.8906 6.69189 27.0606 9.77731 27.1966 13.6348L27.2012 13.8931V18.3375H23.8678V13.8931C23.8678 11.7569 22.1361 10.0252 20 10.0252C17.9351 10.0252 16.2481 11.6434 16.1379 13.6808L16.1322 13.8931V18.3375H12.7988V13.8931C12.7988 9.91597 16.0229 6.69189 20 6.69189Z" fill="#877CFF"/>
<path d="M16.131 15.9141H12.7988V19.8891H16.131V15.9141Z" fill="#4E43C1"/>
<path d="M27.2013 15.9141H23.8691V19.8891H27.2013V15.9141Z" fill="#4E43C1"/>
</svg>
